<svg width="383" height="818" viewBox="0 0 383 818" fill="none" xmlns="http://www.w3.org/2000/svg">
<rect width="382" height="818" fill="url(#paint0_linear_433_34)"/>
<path d="M338.165 754.37C338.125 754.107 338.101 753.836 338.052 753.573C337.931 752.888 337.704 752.251 337.211 751.725C336.24 750.681 334.573 750.386 333.295 751.032C331.07 752.147 329.767 753.956 329.241 756.322C328.999 757.406 329.015 758.505 329.379 759.565C329.743 760.632 330.447 761.389 331.555 761.74C332.211 761.947 332.85 761.843 333.481 761.628C334.937 761.134 336.045 760.218 336.879 758.967C337.615 757.868 338.044 756.665 338.149 755.342C338.149 755.302 338.165 755.262 338.173 755.222C338.165 754.936 338.165 754.649 338.165 754.37ZM321.409 757.246C323.44 757.509 325.196 758.346 326.725 759.676C327.413 760.274 327.947 760.999 328.465 761.732C329.516 763.222 330.406 764.799 330.989 766.528C331.199 767.158 331.345 767.803 331.531 768.44C331.685 768.966 331.741 769.5 331.62 770.042C331.321 771.38 330.544 772.329 329.201 772.767C328.481 772.998 327.736 772.918 327 772.799C326.191 772.663 325.422 772.392 324.654 772.113C323.278 771.612 321.927 771.07 320.431 770.974C319.791 770.934 319.16 770.926 318.537 771.038C317.655 771.197 316.814 771.5 315.989 771.835C315.228 772.137 314.476 772.472 313.699 772.735C312.591 773.109 311.466 773.109 310.39 772.592C309.581 772.201 309.023 771.596 308.828 770.703C308.699 770.114 308.715 769.516 308.837 768.926C309.071 767.715 309.581 766.608 310.204 765.556C310.964 764.266 311.814 763.031 312.744 761.851C313.723 760.608 314.824 759.493 316.134 758.585C317.429 757.684 318.853 757.19 320.447 757.19C320.762 757.198 321.086 757.206 321.409 757.246ZM322.008 747.008C322.016 746.92 322.024 746.841 322.032 746.753C322.17 745.383 322.566 744.092 323.303 742.921C323.966 741.877 324.832 741.056 325.997 740.57C326.968 740.164 327.914 740.14 328.845 740.674C329.371 740.977 329.791 741.391 330.139 741.869C330.762 742.729 331.029 743.702 331.094 744.737C331.199 746.482 330.867 748.131 330.002 749.661C329.314 750.872 328.359 751.812 327.065 752.394C326.555 752.625 326.037 752.753 325.471 752.681C324.435 752.537 323.634 752.02 323.036 751.183C322.267 750.115 321.992 748.896 321.968 747.637C321.992 747.406 322 747.207 322.008 747.008ZM319.905 747.582C319.888 748.833 319.613 750.052 318.837 751.127C318.238 751.956 317.437 752.482 316.401 752.625C315.843 752.705 315.317 752.569 314.807 752.338C313.513 751.757 312.558 750.816 311.871 749.605C311.005 748.076 310.673 746.426 310.778 744.682C310.843 743.638 311.11 742.666 311.733 741.813C312.081 741.327 312.502 740.921 313.028 740.618C313.958 740.084 314.905 740.108 315.875 740.515C317.041 741.001 317.914 741.821 318.57 742.865C319.306 744.044 319.71 745.327 319.84 746.697C319.848 746.785 319.856 746.865 319.864 746.952C319.888 747.151 319.897 747.351 319.905 747.582ZM303.659 753.055C303.877 752.083 304.33 751.231 305.147 750.609C305.689 750.195 306.312 749.948 307.008 749.996C307.858 750.052 308.634 750.338 309.346 750.801C310.592 751.613 311.434 752.753 312 754.099C312.299 754.8 312.453 755.541 312.558 756.29C312.736 757.485 312.55 758.601 311.943 759.644C311.264 760.8 310.026 761.612 308.343 761.182C307.251 760.903 306.345 760.33 305.6 759.517C304.217 757.995 303.561 756.194 303.513 754.155C303.553 753.796 303.578 753.422 303.659 753.055Z" fill="url(#paint1_radial_433_34)"/>
<path d="M365.196 701.011C364.939 700.941 364.682 700.854 364.422 700.791C363.746 700.623 363.072 700.571 362.391 700.808C361.043 701.271 360.096 702.674 360.166 704.104C360.28 706.59 361.403 708.516 363.351 709.958C364.242 710.621 365.253 711.053 366.37 711.151C367.493 711.252 368.471 710.917 369.242 710.047C369.697 709.532 369.863 708.906 369.923 708.242C370.063 706.711 369.677 705.326 368.873 704.056C368.168 702.936 367.243 702.055 366.077 701.421C366.041 701.405 366.011 701.374 365.978 701.351C365.713 701.241 365.451 701.125 365.196 701.011ZM361.011 717.489C362.077 715.741 363.555 714.477 365.392 713.621C366.218 713.235 367.098 713.042 367.978 712.867C369.767 712.512 371.57 712.34 373.386 712.511C374.047 712.575 374.696 712.704 375.354 712.793C375.896 712.867 376.407 713.032 376.853 713.363C377.954 714.181 378.505 715.276 378.359 716.681C378.277 717.433 377.902 718.081 377.493 718.705C377.041 719.389 376.481 719.981 375.913 720.57C374.895 721.622 373.851 722.636 373.155 723.965C372.859 724.533 372.595 725.106 372.444 725.721C372.231 726.591 372.165 727.483 372.136 728.373C372.103 729.191 372.103 730.014 372.027 730.831C371.919 731.996 371.461 733.023 370.551 733.796C369.865 734.376 369.085 734.64 368.191 734.455C367.599 734.333 367.06 734.076 366.571 733.725C365.56 733.018 364.755 732.102 364.048 731.105C363.178 729.886 362.395 728.608 361.696 727.278C360.958 725.878 360.386 724.42 360.089 722.853C359.793 721.304 359.921 719.802 360.569 718.346C360.704 718.061 360.843 717.769 361.011 717.489ZM351.901 712.78C351.824 712.737 351.755 712.697 351.678 712.654C350.482 711.971 349.464 711.084 348.693 709.935C348.009 708.905 347.611 707.78 347.641 706.518C347.664 705.466 348.027 704.591 348.893 703.958C349.384 703.601 349.933 703.385 350.512 703.262C351.551 703.042 352.548 703.194 353.52 703.555C355.157 704.169 356.529 705.142 357.575 706.555C358.402 707.676 358.872 708.93 358.877 710.35C358.881 710.909 358.787 711.434 358.491 711.922C357.939 712.81 357.141 713.331 356.133 713.538C354.845 713.806 353.619 713.562 352.459 713.073C352.258 712.956 352.079 712.868 351.901 712.78ZM351.57 714.935C352.706 715.458 353.708 716.205 354.375 717.352C354.888 718.236 355.043 719.181 354.753 720.186C354.599 720.728 354.261 721.154 353.843 721.525C352.785 722.472 351.538 722.962 350.152 723.098C348.403 723.267 346.761 722.899 345.21 722.094C344.282 721.61 343.503 720.971 342.977 720.055C342.675 719.54 342.474 718.99 342.412 718.387C342.302 717.32 342.709 716.464 343.475 715.743C344.393 714.876 345.498 714.411 346.718 714.237C348.094 714.044 349.431 714.195 350.735 714.634C350.819 714.663 350.895 714.688 350.978 714.716C351.17 714.775 351.355 714.848 351.57 714.935ZM349.965 732.003C349.166 731.408 348.571 730.648 348.336 729.648C348.178 728.985 348.205 728.315 348.532 727.699C348.928 726.945 349.506 726.352 350.218 725.89C351.467 725.082 352.85 724.776 354.31 724.806C355.073 724.818 355.812 724.979 356.539 725.187C357.703 725.51 358.647 726.134 359.354 727.113C360.133 728.203 360.372 729.665 359.295 731.027C358.596 731.912 357.703 732.506 356.658 732.856C354.705 733.501 352.794 733.368 350.911 732.583C350.6 732.4 350.267 732.226 349.965 732.003Z" fill="url(#paint2_radial_433_34)"/>
<defs>
<linearGradient id="paint0_linear_433_34" x1="-30" y1="-55.5" x2="486.154" y2="648.394" gradientUnits="userSpaceOnUse">
<stop stop-color="#D329FD" stop-opacity="0.87"/>
<stop offset="0.318928" stop-color="white"/>
</linearGradient>
<radialGradient id="paint1_radial_433_34" cx="0" cy="0" r="1" gradientUnits="userSpaceOnUse" gradientTransform="translate(320.843 756.607) rotate(90) scale(16.3934 17.3302)">
<stop stop-color="#6B3C75"/>
<stop offset="1" stop-color="#555BA4"/>
</radialGradient>
<radialGradient id="paint2_radial_433_34" cx="0" cy="0" r="1" gradientUnits="userSpaceOnUse" gradientTransform="translate(360.197 717.747) rotate(23.9896) scale(16.3934 17.3302)">
<stop stop-color="#6B3C75"/>
<stop offset="1" stop-color="#555BA4"/>
</radialGradient>
</defs>
</svg>
