<svg width="383" height="818" viewBox="0 0 383 818" fill="none" xmlns="http://www.w3.org/2000/svg">
<rect width="382" height="818" fill="url(#paint0_linear_433_32)"/>
<path d="M338.165 685.37C338.125 685.107 338.101 684.836 338.052 684.573C337.931 683.888 337.704 683.251 337.211 682.725C336.24 681.681 334.573 681.386 333.295 682.032C331.07 683.147 329.767 684.956 329.241 687.322C328.999 688.406 329.015 689.505 329.379 690.565C329.743 691.632 330.447 692.389 331.555 692.74C332.211 692.947 332.85 692.843 333.481 692.628C334.937 692.134 336.045 691.218 336.879 689.967C337.615 688.868 338.044 687.665 338.149 686.342C338.149 686.302 338.165 686.262 338.173 686.222C338.165 685.936 338.165 685.649 338.165 685.37ZM321.409 688.246C323.44 688.509 325.196 689.346 326.725 690.676C327.413 691.274 327.947 691.999 328.465 692.732C329.516 694.222 330.406 695.799 330.989 697.528C331.199 698.158 331.345 698.803 331.531 699.44C331.685 699.966 331.741 700.5 331.62 701.042C331.321 702.38 330.544 703.329 329.201 703.767C328.481 703.998 327.736 703.918 327 703.799C326.191 703.663 325.422 703.392 324.654 703.113C323.278 702.612 321.927 702.07 320.431 701.974C319.791 701.934 319.16 701.926 318.537 702.038C317.655 702.197 316.814 702.5 315.989 702.835C315.228 703.137 314.476 703.472 313.699 703.735C312.591 704.109 311.466 704.109 310.39 703.592C309.581 703.201 309.023 702.596 308.828 701.703C308.699 701.114 308.715 700.516 308.837 699.926C309.071 698.715 309.581 697.608 310.204 696.556C310.964 695.266 311.814 694.031 312.744 692.851C313.723 691.608 314.824 690.493 316.134 689.585C317.429 688.684 318.853 688.19 320.447 688.19C320.762 688.198 321.086 688.206 321.409 688.246ZM322.008 678.008C322.016 677.92 322.024 677.841 322.032 677.753C322.17 676.383 322.566 675.092 323.303 673.921C323.966 672.877 324.832 672.056 325.997 671.57C326.968 671.164 327.914 671.14 328.845 671.674C329.371 671.977 329.791 672.391 330.139 672.869C330.762 673.729 331.029 674.702 331.094 675.737C331.199 677.482 330.867 679.131 330.002 680.661C329.314 681.872 328.359 682.812 327.065 683.394C326.555 683.625 326.037 683.753 325.471 683.681C324.435 683.537 323.634 683.02 323.036 682.183C322.267 681.115 321.992 679.896 321.968 678.637C321.992 678.406 322 678.207 322.008 678.008ZM319.905 678.582C319.888 679.833 319.613 681.052 318.837 682.127C318.238 682.956 317.437 683.482 316.401 683.625C315.843 683.705 315.317 683.569 314.807 683.338C313.513 682.757 312.558 681.816 311.871 680.605C311.005 679.076 310.673 677.426 310.778 675.682C310.843 674.638 311.11 673.666 311.733 672.813C312.081 672.327 312.502 671.921 313.028 671.618C313.958 671.084 314.905 671.108 315.875 671.515C317.041 672.001 317.914 672.821 318.57 673.865C319.306 675.044 319.71 676.327 319.84 677.697C319.848 677.785 319.856 677.865 319.864 677.952C319.888 678.151 319.897 678.351 319.905 678.582ZM303.659 684.055C303.877 683.083 304.33 682.231 305.147 681.609C305.689 681.195 306.312 680.948 307.008 680.996C307.858 681.052 308.634 681.338 309.346 681.801C310.592 682.613 311.434 683.753 312 685.099C312.299 685.8 312.453 686.541 312.558 687.29C312.736 688.485 312.55 689.601 311.943 690.644C311.264 691.8 310.026 692.612 308.343 692.182C307.251 691.903 306.345 691.33 305.6 690.517C304.217 688.995 303.561 687.194 303.513 685.155C303.553 684.796 303.578 684.422 303.659 684.055Z" fill="#9D97BF"/>
<path d="M365.196 632.011C364.939 631.941 364.682 631.854 364.422 631.791C363.746 631.623 363.072 631.571 362.391 631.808C361.043 632.271 360.096 633.674 360.166 635.104C360.28 637.59 361.403 639.516 363.351 640.958C364.242 641.621 365.253 642.053 366.37 642.151C367.493 642.252 368.471 641.917 369.242 641.047C369.697 640.532 369.863 639.906 369.923 639.242C370.063 637.711 369.677 636.326 368.873 635.056C368.168 633.936 367.243 633.055 366.077 632.421C366.041 632.405 366.011 632.374 365.978 632.351C365.713 632.241 365.451 632.125 365.196 632.011ZM361.011 648.489C362.077 646.741 363.555 645.477 365.392 644.621C366.218 644.235 367.098 644.042 367.978 643.867C369.767 643.512 371.57 643.34 373.386 643.511C374.047 643.575 374.696 643.704 375.354 643.793C375.896 643.867 376.407 644.032 376.853 644.363C377.954 645.181 378.505 646.276 378.359 647.681C378.277 648.433 377.902 649.081 377.493 649.705C377.041 650.389 376.481 650.981 375.913 651.57C374.895 652.622 373.851 653.636 373.155 654.965C372.859 655.533 372.595 656.106 372.444 656.721C372.231 657.591 372.165 658.483 372.136 659.373C372.103 660.191 372.103 661.014 372.027 661.831C371.919 662.996 371.461 664.023 370.551 664.796C369.865 665.376 369.085 665.64 368.191 665.455C367.599 665.333 367.06 665.076 366.571 664.725C365.56 664.018 364.755 663.102 364.048 662.105C363.178 660.886 362.395 659.608 361.696 658.278C360.958 656.878 360.386 655.42 360.089 653.853C359.793 652.304 359.921 650.802 360.569 649.346C360.704 649.061 360.843 648.769 361.011 648.489ZM351.901 643.78C351.824 643.737 351.755 643.697 351.678 643.654C350.482 642.971 349.464 642.084 348.693 640.935C348.009 639.905 347.611 638.78 347.641 637.518C347.664 636.466 348.027 635.591 348.893 634.958C349.384 634.601 349.933 634.385 350.512 634.262C351.551 634.042 352.548 634.194 353.52 634.555C355.157 635.169 356.529 636.142 357.575 637.555C358.402 638.676 358.872 639.93 358.877 641.35C358.881 641.909 358.787 642.434 358.491 642.922C357.939 643.81 357.141 644.331 356.133 644.538C354.845 644.806 353.619 644.562 352.459 644.073C352.258 643.956 352.079 643.868 351.901 643.78ZM351.57 645.935C352.706 646.458 353.708 647.205 354.375 648.352C354.888 649.236 355.043 650.181 354.753 651.186C354.599 651.728 354.261 652.154 353.843 652.525C352.785 653.472 351.538 653.962 350.152 654.098C348.403 654.267 346.761 653.899 345.21 653.094C344.282 652.61 343.503 651.971 342.977 651.055C342.675 650.54 342.474 649.99 342.412 649.387C342.302 648.32 342.709 647.464 343.475 646.743C344.393 645.876 345.498 645.411 346.718 645.237C348.094 645.044 349.431 645.195 350.735 645.634C350.819 645.663 350.895 645.688 350.978 645.716C351.17 645.775 351.355 645.848 351.57 645.935ZM349.965 663.003C349.166 662.408 348.571 661.648 348.336 660.648C348.178 659.985 348.205 659.315 348.532 658.699C348.928 657.945 349.506 657.352 350.218 656.89C351.467 656.082 352.85 655.776 354.31 655.806C355.073 655.818 355.812 655.979 356.539 656.187C357.703 656.51 358.647 657.134 359.354 658.113C360.133 659.203 360.372 660.665 359.295 662.027C358.596 662.912 357.703 663.506 356.658 663.856C354.705 664.501 352.794 664.368 350.911 663.583C350.6 663.4 350.267 663.226 349.965 663.003Z" fill="#9D97BF"/>
<defs>
<linearGradient id="paint0_linear_433_32" x1="-30" y1="-55.5" x2="486.154" y2="648.394" gradientUnits="userSpaceOnUse">
<stop stop-color="#D329FD" stop-opacity="0.87"/>
<stop offset="0.318928" stop-color="white"/>
</linearGradient>
</defs>
</svg>
